<svg><defs><g id="icon-apple"> <g> </g> <path d="M24.734 17.003c-0.040-4.053 3.305-5.996 3.454-6.093-1.88-2.751-4.808-3.127-5.851-3.171-2.492-0.252-4.862 1.467-6.127 1.467-1.261 0-3.213-1.43-5.28-1.392-2.716 0.040-5.221 1.579-6.619 4.012-2.822 4.897-0.723 12.151 2.028 16.123 1.344 1.944 2.947 4.127 5.051 4.049 2.026-0.081 2.793-1.311 5.242-1.311 2.45 0 3.138 1.311 5.283 1.271 2.18-0.041 3.562-1.981 4.897-3.931 1.543-2.255 2.179-4.439 2.216-4.551-0.048-0.022-4.252-1.632-4.294-6.473zM20.705 5.11c1.117-1.355 1.871-3.235 1.665-5.11-1.609 0.066-3.559 1.072-4.713 2.423-1.036 1.199-1.942 3.113-1.699 4.951 1.796 0.14 3.629-0.913 4.747-2.264z" fill="#000000"></path> </g><g id="icon-arrow-down"> <g> </g> <path d="M4.131 8.962c-0.434-0.429-1.134-0.429-1.566 0-0.432 0.427-0.432 1.122 0 1.55l12.653 12.528c0.434 0.429 1.133 0.429 1.566 0l12.653-12.528c0.432-0.429 0.434-1.122 0-1.55s-1.136-0.429-1.566-0.002l-11.87 11.426-11.869-11.424z" fill="#000000"></path> </g><g id="icon-arrow-left"> <g> </g> <path d="M23.038 27.869c0.429 0.434 0.429 1.133 0 1.566s-1.122 0.434-1.55 0l-12.528-12.651c-0.429-0.434-0.429-1.134 0-1.566l12.528-12.653c0.429-0.434 1.122-0.434 1.55 0s0.429 1.133 0 1.566l-11.424 11.869 11.424 11.869z" fill="#000000"></path> </g><g id="icon-arrow-up"> <g> </g> <path d="M27.869 23.038c0.434 0.429 1.134 0.429 1.566 0 0.434-0.429 0.434-1.122 0-1.55l-12.653-12.528c-0.432-0.429-1.133-0.429-1.565 0l-12.653 12.528c-0.432 0.429-0.434 1.122 0 1.55s1.133 0.429 1.566 0l11.869-11.426 11.869 11.426z" fill="#000000"></path> </g><g id="icon-arrow-up2"> <g> </g> <path d="M8.96 27.869c-0.429 0.434-0.429 1.133 0 1.566s1.122 0.434 1.55 0l12.528-12.651c0.429-0.434 0.429-1.134 0-1.566l-12.528-12.653c-0.429-0.434-1.122-0.434-1.55 0s-0.429 1.133 0 1.566l11.424 11.869-11.424 11.869z" fill="#000000"></path> </g><g id="icon-bubble"> <g> </g> <path d="M16 2c8.837 0 16 5.82 16 13 0 7.18-7.163 13-16 13-0.849 0-1.682-0.054-2.495-0.158-3.437 3.437-7.539 4.053-11.505 4.144v-0.841c2.142-1.049 4-2.961 4-5.145 0-0.305-0.024-0.604-0.068-0.897-3.619-2.383-5.932-6.024-5.932-10.103 0-7.18 7.163-13 16-13z" fill="#000000"></path> </g><g id="icon-calendar"> <g> </g> <path d="M10 12h4v4h-4zM16 12h4v4h-4zM22 12h4v4h-4zM4 24h4v4h-4zM10 24h4v4h-4zM16 24h4v4h-4zM10 18h4v4h-4zM16 18h4v4h-4zM22 18h4v4h-4zM4 18h4v4h-4zM26 0v2h-4v-2h-14v2h-4v-2h-4v32h30v-32h-4zM28 30h-26v-22h26v22z" fill="#000000"></path> </g><g id="icon-checkmark"> <g> </g> <path d="M27 4l-15 15-7-7-5 5 12 12 20-20z" fill="#000000"></path> </g><g id="icon-close"> <g> </g> <path d="M31.708 25.708c-0-0-0-0-0-0l-9.708-9.708 9.708-9.708c0-0 0-0 0-0 0.105-0.105 0.18-0.227 0.229-0.357 0.133-0.356 0.057-0.771-0.229-1.057l-4.586-4.586c-0.286-0.286-0.702-0.361-1.057-0.229-0.13 0.048-0.252 0.124-0.357 0.228 0 0-0 0-0 0l-9.708 9.708-9.708-9.708c-0-0-0-0-0-0-0.105-0.104-0.227-0.18-0.357-0.228-0.356-0.133-0.771-0.057-1.057 0.229l-4.586 4.586c-0.286 0.286-0.361 0.702-0.229 1.057 0.049 0.13 0.124 0.252 0.229 0.357 0 0 0 0 0 0l9.708 9.708-9.708 9.708c-0 0-0 0-0 0-0.104 0.105-0.18 0.227-0.229 0.357-0.133 0.355-0.057 0.771 0.229 1.057l4.586 4.586c0.286 0.286 0.702 0.361 1.057 0.229 0.13-0.049 0.252-0.124 0.357-0.229 0-0 0-0 0-0l9.708-9.708 9.708 9.708c0 0 0 0 0 0 0.105 0.105 0.227 0.18 0.357 0.229 0.356 0.133 0.771 0.057 1.057-0.229l4.586-4.586c0.286-0.286 0.362-0.702 0.229-1.057-0.049-0.13-0.124-0.252-0.229-0.357z" fill="#000000"></path> </g><g id="icon-cogs"> <g> </g> <path d="M11.366 22.564l1.291-1.807-1.414-1.414-1.807 1.291c-0.335-0.187-0.694-0.337-1.071-0.444l-0.365-2.19h-2l-0.365 2.19c-0.377 0.107-0.736 0.256-1.071 0.444l-1.807-1.291-1.414 1.414 1.291 1.807c-0.187 0.335-0.337 0.694-0.443 1.071l-2.19 0.365v2l2.19 0.365c0.107 0.377 0.256 0.736 0.444 1.071l-1.291 1.807 1.414 1.414 1.807-1.291c0.335 0.187 0.694 0.337 1.071 0.444l0.365 2.19h2l0.365-2.19c0.377-0.107 0.736-0.256 1.071-0.444l1.807 1.291 1.414-1.414-1.291-1.807c0.187-0.335 0.337-0.694 0.444-1.071l2.19-0.365v-2l-2.19-0.365c-0.107-0.377-0.256-0.736-0.444-1.071zM7 27c-1.105 0-2-0.895-2-2s0.895-2 2-2 2 0.895 2 2-0.895 2-2 2zM32 12v-2l-2.106-0.383c-0.039-0.251-0.088-0.499-0.148-0.743l1.799-1.159-0.765-1.848-2.092 0.452c-0.132-0.216-0.273-0.426-0.422-0.629l1.219-1.761-1.414-1.414-1.761 1.219c-0.203-0.149-0.413-0.29-0.629-0.422l0.452-2.092-1.848-0.765-1.159 1.799c-0.244-0.059-0.492-0.109-0.743-0.148l-0.383-2.106h-2l-0.383 2.106c-0.251 0.039-0.499 0.088-0.743 0.148l-1.159-1.799-1.848 0.765 0.452 2.092c-0.216 0.132-0.426 0.273-0.629 0.422l-1.761-1.219-1.414 1.414 1.219 1.761c-0.149 0.203-0.29 0.413-0.422 0.629l-2.092-0.452-0.765 1.848 1.799 1.159c-0.059 0.244-0.109 0.492-0.148 0.743l-2.106 0.383v2l2.106 0.383c0.039 0.251 0.088 0.499 0.148 0.743l-1.799 1.159 0.765 1.848 2.092-0.452c0.132 0.216 0.273 0.426 0.422 0.629l-1.219 1.761 1.414 1.414 1.761-1.219c0.203 0.149 0.413 0.29 0.629 0.422l-0.452 2.092 1.848 0.765 1.159-1.799c0.244 0.059 0.492 0.109 0.743 0.148l0.383 2.106h2l0.383-2.106c0.251-0.039 0.499-0.088 0.743-0.148l1.159 1.799 1.848-0.765-0.452-2.092c0.216-0.132 0.426-0.273 0.629-0.422l1.761 1.219 1.414-1.414-1.219-1.761c0.149-0.203 0.29-0.413 0.422-0.629l2.092 0.452 0.765-1.848-1.799-1.159c0.059-0.244 0.109-0.492 0.148-0.743l2.106-0.383zM21 15.35c-2.402 0-4.35-1.948-4.35-4.35s1.948-4.35 4.35-4.35 4.35 1.948 4.35 4.35c0 2.402-1.948 4.35-4.35 4.35z" fill="#000000"></path> </g><g id="icon-credit"> <g> </g> <path d="M29 4h-26c-1.65 0-3 1.35-3 3v18c0 1.65 1.35 3 3 3h26c1.65 0 3-1.35 3-3v-18c0-1.65-1.35-3-3-3zM3 6h26c0.542 0 1 0.458 1 1v3h-28v-3c0-0.542 0.458-1 1-1zM29 26h-26c-0.542 0-1-0.458-1-1v-9h28v9c0 0.542-0.458 1-1 1zM4 20h2v4h-2zM8 20h2v4h-2zM12 20h2v4h-2z" fill="#000000"></path> </g><g id="icon-enter"> <g> </g> <path d="M12 16h-10v-4h10v-4l6 6-6 6zM32 0v26l-12 6v-6h-12v-8h2v6h10v-18l8-4h-18v8h-2v-10z" fill="#000000"></path> </g><g id="icon-exit"> <g> </g> <path d="M24 20v-4h-10v-4h10v-4l6 6zM22 18v8h-10v6l-12-6v-26h22v10h-2v-8h-16l8 4v18h8v-6z" fill="#000000"></path> </g><g id="icon-facebook"> <g> </g> <path d="M17.996 32h-5.996v-16h-4v-5.514l4-0.002-0.007-3.248c0-4.498 1.22-7.236 6.519-7.236h4.412v5.515h-2.757c-2.064 0-2.163 0.771-2.163 2.209l-0.008 2.76h4.959l-0.584 5.514-4.37 0.002-0.004 16z" fill="#000000"></path> </g><g id="icon-feed"> <g> </g> <path d="M4.259 23.467c-2.35 0-4.259 1.917-4.259 4.252 0 2.349 1.909 4.244 4.259 4.244 2.358 0 4.265-1.895 4.265-4.244-0-2.336-1.907-4.252-4.265-4.252zM0.005 10.873v6.133c3.993 0 7.749 1.562 10.577 4.391 2.825 2.822 4.384 6.595 4.384 10.603h6.16c-0-11.651-9.478-21.127-21.121-21.127zM0.012 0v6.136c14.243 0 25.836 11.604 25.836 25.864h6.152c0-17.64-14.352-32-31.988-32z" fill="#000000"></path> </g><g id="icon-file"> <g> </g> <path d="M27.879 5.879l-3.757-3.757c-1.167-1.167-3.471-2.121-5.121-2.121h-14c-1.65 0-3 1.35-3 3v26c0 1.65 1.35 3 3 3h22c1.65 0 3-1.35 3-3v-18c0-1.65-0.955-3.955-2.121-5.121zM20 4.236c0.069 0.025 0.139 0.053 0.211 0.082 0.564 0.234 0.956 0.505 1.082 0.631l3.757 3.757c0.126 0.126 0.397 0.517 0.631 1.082 0.030 0.072 0.057 0.143 0.082 0.211h-5.764v-5.764zM26 28h-20v-24h12v8h8v16zM8 16h16v2h-16zM8 20h16v2h-16zM8 24h16v2h-16z" fill="#000000"></path> </g><g id="icon-github"> <g> </g> <path d="M0 17.388c0 1.45 0.136 2.762 0.407 3.935 0.271 1.174 0.647 2.193 1.127 3.059 0.48 0.866 1.090 1.627 1.831 2.285 0.741 0.657 1.544 1.195 2.41 1.612 0.866 0.417 1.854 0.756 2.965 1.017 1.111 0.261 2.245 0.443 3.403 0.548 1.158 0.104 2.431 0.156 3.818 0.156 1.398 0 2.676-0.052 3.834-0.156 1.158-0.104 2.295-0.287 3.411-0.548 1.116-0.261 2.11-0.6 2.981-1.017 0.871-0.417 1.68-0.954 2.425-1.612 0.746-0.657 1.361-1.419 1.846-2.285 0.485-0.866 0.863-1.886 1.134-3.059 0.271-1.174 0.407-2.486 0.407-3.935 0-2.587-0.866-4.825-2.597-6.713 0.094-0.25 0.18-0.535 0.258-0.853 0.078-0.318 0.151-0.772 0.219-1.361 0.068-0.589 0.042-1.27-0.078-2.042-0.12-0.772-0.342-1.56-0.665-2.363l-0.235-0.047c-0.167-0.031-0.441-0.023-0.822 0.024s-0.824 0.141-1.33 0.282c-0.506 0.141-1.158 0.412-1.956 0.814-0.798 0.402-1.64 0.905-2.527 1.51-1.523-0.417-3.615-0.626-6.275-0.626-2.65 0-4.736 0.209-6.259 0.626-0.887-0.605-1.734-1.108-2.543-1.51-0.808-0.402-1.453-0.673-1.933-0.814-0.48-0.141-0.928-0.232-1.346-0.274-0.417-0.042-0.681-0.055-0.79-0.039-0.11 0.016-0.196 0.034-0.258 0.055-0.323 0.803-0.545 1.591-0.665 2.363-0.12 0.772-0.146 1.453-0.078 2.042 0.068 0.589 0.141 1.043 0.219 1.361 0.078 0.318 0.164 0.602 0.258 0.853-1.732 1.888-2.598 4.126-2.598 6.713zM3.928 21.315c0-1.502 0.683-2.879 2.050-4.131 0.407-0.376 0.881-0.66 1.424-0.853 0.542-0.193 1.155-0.302 1.839-0.329 0.683-0.026 1.338-0.021 1.964 0.016 0.626 0.037 1.398 0.086 2.316 0.149 0.918 0.063 1.711 0.094 2.379 0.094 0.668 0 1.46-0.031 2.378-0.094 0.918-0.063 1.69-0.112 2.316-0.149 0.626-0.037 1.28-0.042 1.964-0.016 0.683 0.026 1.296 0.136 1.839 0.329 0.542 0.193 1.017 0.477 1.424 0.853 1.367 1.231 2.050 2.608 2.050 4.131 0 0.897-0.112 1.693-0.337 2.386-0.224 0.694-0.511 1.275-0.861 1.745-0.349 0.469-0.834 0.868-1.455 1.197-0.621 0.329-1.226 0.582-1.815 0.759-0.589 0.177-1.346 0.316-2.269 0.415-0.923 0.099-1.747 0.159-2.472 0.18-0.725 0.021-1.646 0.031-2.762 0.031-1.116 0-2.037-0.010-2.762-0.031-0.725-0.021-1.549-0.081-2.472-0.18-0.923-0.099-1.68-0.237-2.269-0.415-0.589-0.177-1.194-0.43-1.815-0.759-0.621-0.329-1.106-0.728-1.455-1.197-0.349-0.469-0.636-1.051-0.861-1.745-0.224-0.694-0.336-1.489-0.336-2.386zM20 21c0-1.657 0.895-3 2-3s2 1.343 2 3c0 1.657-0.895 3-2 3-1.105 0-2-1.343-2-3zM8 21c0-1.657 0.895-3 2-3s2 1.343 2 3c0 1.657-0.895 3-2 3-1.105 0-2-1.343-2-3z" fill="#000000"></path> </g><g id="icon-googleplus"> <g> </g> <path d="M17.471 2c0 0-6.28 0-8.373 0-3.754 0-7.287 2.844-7.287 6.138 0 3.366 2.559 6.083 6.378 6.083 0.266 0 0.524-0.005 0.776-0.024-0.248 0.475-0.425 1.009-0.425 1.564 0 0.936 0.503 1.694 1.14 2.313-0.481 0-0.945 0.014-1.452 0.014-4.649-0-8.228 2.961-8.228 6.032 0 3.024 3.923 4.916 8.573 4.916 5.301 0 8.228-3.008 8.228-6.032 0-2.425-0.715-3.877-2.928-5.442-0.757-0.536-2.204-1.839-2.204-2.604 0-0.897 0.256-1.34 1.607-2.395 1.385-1.082 2.365-2.603 2.365-4.372 0-2.106-0.938-4.159-2.699-4.837h2.655l1.874-1.355zM14.546 22.483c0.066 0.28 0.103 0.569 0.103 0.863 0 2.444-1.575 4.353-6.093 4.353-3.214 0-5.535-2.035-5.535-4.478 0-2.395 2.879-4.389 6.093-4.354 0.75 0.008 1.449 0.129 2.083 0.334 1.745 1.213 2.996 1.899 3.349 3.281zM9.401 13.368c-2.157-0.065-4.207-2.413-4.58-5.246-0.372-2.833 1.074-5.001 3.231-4.937 2.157 0.065 4.207 2.338 4.58 5.171 0.372 2.833-1.075 5.077-3.231 5.012zM26 8v-6h-2v6h-6v2h6v6h2v-6h6v-2z" fill="#000000"></path> </g><g id="icon-heart"> <g> </g> <path d="M32 11.192c0 2.699-1.163 5.126-3.015 6.808h0.015l-10 10c-1 1-2 2-3 2s-2-1-3-2l-9.985-10c-1.852-1.682-3.015-4.109-3.015-6.808 0-5.077 4.116-9.192 9.192-9.192 2.699 0 5.126 1.163 6.808 3.015 1.682-1.852 4.109-3.015 6.808-3.015 5.077 0 9.192 4.116 9.192 9.192z" fill="#000000"></path> </g><g id="icon-home"> <g> </g> <path d="M32 19l-6-6v-9h-4v5l-6-6-16 16v1h4v10h10v-6h4v6h10v-10h4z" fill="#000000"></path> </g><g id="icon-location"> <g> </g> <path d="M16 0c-5.523 0-10 4.477-10 10 0 10 10 22 10 22s10-12 10-22c0-5.523-4.477-10-10-10zM16 16.125c-3.383 0-6.125-2.742-6.125-6.125s2.742-6.125 6.125-6.125 6.125 2.742 6.125 6.125-2.742 6.125-6.125 6.125zM12.125 10c0-2.14 1.735-3.875 3.875-3.875s3.875 1.735 3.875 3.875c0 2.14-1.735 3.875-3.875 3.875-2.14 0-3.875-1.735-3.875-3.875z" fill="#000000"></path> </g><g id="icon-minus"> <g> </g> <path d="M0 13v6c0 0.552 0.448 1 1 1h30c0.552 0 1-0.448 1-1v-6c0-0.552-0.448-1-1-1h-30c-0.552 0-1 0.448-1 1z" fill="#000000"></path> </g><g id="icon-mobile"> <g> </g> <path d="M23 0h-14c-1.65 0-3 1.35-3 3v26c0 1.65 1.35 3 3 3h14c1.65 0 3-1.35 3-3v-26c0-1.65-1.35-3-3-3zM12 1.5h8v1h-8v-1zM16 30c-1.105 0-2-0.895-2-2s0.895-2 2-2 2 0.895 2 2-0.895 2-2 2zM24 24h-16v-20h16v20z" fill="#000000"></path> </g><g id="icon-paypal"> <g> </g> <path d="M27.52 4.087c0.803 0.393 1.503 0.953 2.016 1.64 1.079 1.447 1.382 3.418 0.901 5.858-0.486 2.47-1.575 4.554-3.161 6.064-0.29 0.303-0.601 0.586-0.931 0.846-1.699 1.338-3.844 2.045-6.203 2.045h-7.502l-2.018 9.46h-4.138l0.315-1.447h1.442l2.018-9.46h5.883c5.633 0 10.342-3.471 11.602-9.373 1.429-6.682-3.362-9.72-7.482-9.72h-14.040l-6.221 28.553h4.751l-0.751 3.447h8.239l2.018-9.46h5.883c5.633 0 10.342-3.471 11.602-9.373 1.054-4.928-1.275-7.873-4.222-9.080zM13.198 5.815h4.035c2.018 0 3.363 1.736 2.775 3.905-0.504 2.17-2.606 3.905-4.707 3.905h-3.867l1.765-7.81z" fill="#000000"></path> </g><g id="icon-plus"> <g> </g> <path d="M31 12h-11v-11c0-0.552-0.448-1-1-1h-6c-0.552 0-1 0.448-1 1v11h-11c-0.552 0-1 0.448-1 1v6c0 0.552 0.448 1 1 1h11v11c0 0.552 0.448 1 1 1h6c0.552 0 1-0.448 1-1v-11h11c0.552 0 1-0.448 1-1v-6c0-0.552-0.448-1-1-1z" fill="#000000"></path> </g><g id="icon-profile"> <g> </g> <path d="M27 0h-24c-1.65 0-3 1.35-3 3v26c0 1.65 1.35 3 3 3h24c1.65 0 3-1.35 3-3v-26c0-1.65-1.35-3-3-3zM26 28h-22v-24h22v24zM8 18h14v2h-14zM8 22h14v2h-14zM10 9c0-1.657 1.343-3 3-3s3 1.343 3 3c0 1.657-1.343 3-3 3-1.657 0-3-1.343-3-3zM15 12h-4c-1.65 0-3 0.9-3 2v2h10v-2c0-1.1-1.35-2-3-2z" fill="#000000"></path> </g><g id="icon-screen"> <g> </g> <path d="M32 26v-24h-32v24h14v2h-6v2h16v-2h-6v-2h14zM4 6h24v16h-24v-16z" fill="#000000"></path> </g><g id="icon-skype"> <g> </g> <path d="M30.478 18.061c0.088-0.65 0.138-1.311 0.138-1.983 0-8.072-6.579-14.617-14.694-14.617-0.806 0-1.597 0.066-2.367 0.192-1.38-0.899-3.021-1.423-4.788-1.423-4.845 0-8.768 3.925-8.768 8.769 0 1.762 0.519 3.4 1.412 4.774-0.12 0.751-0.182 1.52-0.182 2.304 0 8.073 6.576 14.618 14.693 14.618 0.916 0 1.808-0.089 2.675-0.246 1.347 0.836 2.933 1.322 4.634 1.322 4.844 0 8.768-3.926 8.768-8.77-0-1.831-0.56-3.533-1.522-4.94zM17.296 26.85c-4.669 0.243-6.854-0.79-8.856-2.668-2.235-2.098-1.337-4.491 0.484-4.613 1.82-0.122 2.913 2.063 3.884 2.671 0.97 0.605 4.662 1.985 6.612-0.244 2.123-2.427-1.412-3.683-4.004-4.063-3.7-0.548-8.372-2.55-8.008-6.494 0.364-3.942 3.349-5.963 6.491-6.248 4.005-0.364 6.612 0.607 8.674 2.366 2.384 2.033 1.094 4.306-0.425 4.489-1.513 0.182-3.213-3.344-6.549-3.397-3.439-0.054-5.764 3.579-1.518 4.612 4.248 1.032 8.797 1.455 10.435 5.339 1.639 3.884-2.547 8.008-7.22 8.251z" fill="#000000"></path> </g><g id="icon-star"> <g> </g> <path d="M32 12.408l-11.056-1.607-4.944-10.018-4.944 10.018-11.056 1.607 8 7.798-1.889 11.011 9.889-5.199 9.889 5.199-1.889-11.011 8-7.798zM16 23.547l-6.983 3.671 1.334-7.776-5.65-5.507 7.808-1.134 3.492-7.075 3.492 7.075 7.807 1.134-5.65 5.507 1.334 7.776-6.983-3.671z" fill="#000000"></path> </g><g id="icon-star2"> <g> </g> <path d="M32 12.408l-11.056-1.607-4.944-10.018-4.944 10.018-11.056 1.607 8 7.798-1.889 11.011 9.889-5.199 9.889 5.199-1.889-11.011 8-7.798zM16 23.547l-0.029 0.015 0.029-17.837 3.492 7.075 7.807 1.134-5.65 5.507 1.334 7.776-6.983-3.671z" fill="#000000"></path> </g><g id="icon-star3"> <g> </g> <path d="M32 12.408l-11.056-1.607-4.944-10.018-4.944 10.018-11.056 1.607 8 7.798-1.889 11.011 9.889-5.199 9.889 5.199-1.889-11.011 8-7.798z" fill="#000000"></path> </g><g id="icon-tablet"> <g> </g> <path d="M25 0h-20c-1.65 0-3 1.35-3 3v26c0 1.65 1.35 3 3 3h20c1.65 0 3-1.35 3-3v-26c0-1.65-1.35-3-3-3zM15 31c-0.552 0-1-0.448-1-1s0.448-1 1-1 1 0.448 1 1-0.448 1-1 1zM24 28h-18v-24h18v24z" fill="#000000"></path> </g><g id="icon-tv"> <g> </g> <path d="M30.662 9.003c-2.775-0.399-5.731-0.688-8.815-0.851l5.153-5.153-2-2-7.017 7.017c-0.656-0.011-1.317-0.017-1.983-0.017v0l-8-8-2 2 6.069 6.069c-3.779 0.133-7.386 0.454-10.731 0.935-0.86 3.366-1.338 7.086-1.338 10.997s0.477 7.63 1.338 10.997c4.489 0.645 9.448 1.003 14.662 1.003 5.214 0 10.173-0.358 14.662-1.003 0.86-3.366 1.338-7.086 1.338-10.997s-0.477-7.63-1.338-10.997zM26.997 27.331c-3.367 0.43-7.086 0.669-10.997 0.669-3.911 0-7.63-0.239-10.997-0.669-0.645-2.244-1.003-4.724-1.003-7.331 0-2.607 0.358-5.087 1.003-7.331 3.366-0.43 7.086-0.669 10.997-0.669 3.91 0 7.63 0.239 10.996 0.669 0.645 2.244 1.004 4.724 1.004 7.331 0 2.607-0.358 5.087-1.003 7.331z" fill="#000000"></path> </g><g id="icon-twitter"> <g> </g> <path d="M32 6.076c-1.177 0.522-2.443 0.875-3.771 1.034 1.355-0.813 2.396-2.099 2.887-3.632-1.269 0.752-2.674 1.299-4.169 1.593-1.198-1.276-2.904-2.073-4.792-2.073-3.626 0-6.565 2.939-6.565 6.565 0 0.515 0.058 1.016 0.17 1.496-5.456-0.274-10.294-2.888-13.532-6.86-0.565 0.97-0.889 2.097-0.889 3.301 0 2.278 1.159 4.287 2.921 5.465-1.076-0.034-2.088-0.329-2.974-0.821-0.001 0.027-0.001 0.055-0.001 0.083 0 3.181 2.263 5.834 5.266 6.437-0.551 0.15-1.131 0.23-1.73 0.23-0.423 0-0.834-0.041-1.235-0.118 0.835 2.608 3.26 4.506 6.133 4.559-2.247 1.761-5.078 2.81-8.154 2.81-0.53 0-1.052-0.031-1.566-0.092 2.905 1.863 6.356 2.95 10.064 2.95 12.076 0 18.679-10.004 18.679-18.68 0-0.285-0.006-0.568-0.019-0.849 1.283-0.926 2.396-2.082 3.276-3.398z" fill="#000000"></path> </g></defs></svg>